<svg width="485" height="568" viewBox="0 0 485 568" fill="none" xmlns="http://www.w3.org/2000/svg">
<path d="M260.5 467.625C254.25 470.375 249.75 469.875 247 466.125C244.25 462.375 245.375 458.5 250.375 454.5C279.375 433 294.25 414.625 295 399.375C295.75 389.125 291 377 280.75 363C270.75 349 253 330.375 227.5 307.125C175.75 260.125 150.125 221.125 150.625 190.125C150.625 161.625 172.125 134 215.125 107.25C216.625 106.5 222.75 103 233.5 96.75C244.25 90.25 252 85.25 256.75 81.75C259 79.75 259.875 77.5 259.375 75C251.625 40.75 230.125 23.625 194.875 23.625C159.125 23.625 132.375 45.875 114.625 90.375C96.875 134.625 90.625 183 95.875 235.5C104.875 327 134.375 395.75 184.375 441.75C234.375 487.5 291.5 510.375 355.75 510.375C391.25 510.375 428.5 500.875 467.5 481.875C473.25 479.125 477.5 479.875 480.25 484.125C483 488.125 481.75 492.375 476.5 496.875C416.75 544.125 348.5 567.75 271.75 567.75C195 567.75 131.625 537.625 81.625 477.375C31.625 416.875 4.75003 357.75 1.00003 300C-4.24997 216.5 11.625 145.75 48.625 87.75C85.625 29.75 132.375 0.75 188.875 0.75C211.875 0.75 230.25 6.625 244 18.375C258 29.875 267.625 43.75 272.875 60C274.625 65 277.75 66.125 282.25 63.375C304.25 47.125 324.625 29.25 343.375 9.75C351.625 3.5 361 3.25 371.5 9C382.25 14.5 392.125 19.5 401.125 24C409.375 28.75 419.5 34.375 431.5 40.875C443.5 47.375 456.25 47.75 469.75 42C475.25 39.25 479.375 39.375 482.125 42.375C485.125 45.125 485 48.375 481.75 52.125C469 64.625 457.125 75.875 446.125 85.875C435.125 95.625 424.375 105.25 413.875 114.75C411.375 117.25 409.75 118.625 409 118.875C408 119.375 406.75 119.625 405.25 119.625C403.25 119.625 400.875 118.75 398.125 117C395.625 115.25 393.5 113.875 391.75 112.875C348.5 91.875 318.625 81.375 302.125 81.375C290.125 81.875 278 87 265.75 96.75C245.25 112.75 234.875 128.5 234.625 144C233.875 163.5 249.25 186.875 280.75 214.125C346.25 270.875 380.75 316.125 384.25 349.875C386.75 381.875 345.5 421.125 260.5 467.625Z" fill="black"/>
</svg>
